<svg width="113" height="31" viewBox="0 0 113 31" fill="none" xmlns="http://www.w3.org/2000/svg">
<path d="M16.664 24H0.536V20.32L11.64 5.12H0.92V1.664H16.248V5.344L5.176 20.544H16.664V24ZM28.1715 24.384C26.8488 24.384 25.6755 24.1813 24.6515 23.776C23.6275 23.3707 22.7635 22.7947 22.0595 22.048C21.3768 21.3013 20.8542 20.4053 20.4915 19.36C20.1288 18.2933 19.9475 17.0987 19.9475 15.776C19.9475 14.432 20.1288 13.2267 20.4915 12.16C20.8755 11.0933 21.4088 10.1867 22.0915 9.44C22.7742 8.69333 23.5955 8.11733 24.5555 7.712C25.5368 7.30667 26.6355 7.104 27.8515 7.104C29.0462 7.104 30.1235 7.30667 31.0835 7.712C32.0435 8.096 32.8542 8.65067 33.5155 9.376C34.1982 10.1013 34.7208 10.976 35.0835 12C35.4462 13.024 35.6275 14.1547 35.6275 15.392V16.736H24.0435V17.152C24.0435 18.3467 24.4168 19.3173 25.1635 20.064C25.9102 20.7893 26.9555 21.152 28.2995 21.152C29.3235 21.152 30.1982 20.9493 30.9235 20.544C31.6702 20.1173 32.2888 19.5627 32.7795 18.88L35.1155 21.216C34.5182 22.0907 33.6435 22.8373 32.4915 23.456C31.3608 24.0747 29.9208 24.384 28.1715 24.384ZM27.8835 10.112C26.7315 10.112 25.8035 10.4747 25.0995 11.2C24.3955 11.9253 24.0435 12.8853 24.0435 14.08V14.304H31.5315V14.016C31.5315 12.8213 31.2008 11.872 30.5395 11.168C29.8995 10.464 29.0142 10.112 27.8835 10.112ZM39.583 7.488H43.679V10.4H43.903C44.351 9.39733 44.959 8.59733 45.727 8C46.5163 7.40267 47.551 7.104 48.831 7.104C49.7697 7.104 50.623 7.28533 51.391 7.648C52.1803 7.98933 52.8523 8.52267 53.407 9.248C53.9617 9.952 54.3883 10.848 54.687 11.936C54.9857 13.024 55.135 14.2933 55.135 15.744C55.135 17.1947 54.9857 18.464 54.687 19.552C54.3883 20.64 53.9617 21.5467 53.407 22.272C52.8523 22.976 52.1803 23.5093 51.391 23.872C50.623 24.2133 49.7697 24.384 48.831 24.384C47.551 24.384 46.5163 24.0853 45.727 23.488C44.959 22.8907 44.351 22.0907 43.903 21.088H43.679V30.4H39.583V7.488ZM47.103 21.12C48.2977 21.12 49.215 20.7573 49.855 20.032C50.5163 19.3067 50.847 18.3147 50.847 17.056V14.432C50.847 13.1733 50.5163 12.1813 49.855 11.456C49.215 10.7307 48.2977 10.368 47.103 10.368C46.1643 10.368 45.3537 10.6027 44.671 11.072C44.0097 11.52 43.679 12.2133 43.679 13.152V18.336C43.679 19.2747 44.0097 19.9787 44.671 20.448C45.3537 20.896 46.1643 21.12 47.103 21.12ZM58.9625 0.32H63.0585V10.4H63.2185C63.5812 9.504 64.1358 8.736 64.8825 8.096C65.6505 7.43467 66.7065 7.104 68.0505 7.104C69.6718 7.104 70.9838 7.648 71.9865 8.736C73.0105 9.80267 73.5225 11.3387 73.5225 13.344V24H69.4265V13.92C69.4265 11.5307 68.3918 10.336 66.3225 10.336C65.8958 10.336 65.4905 10.3893 65.1065 10.496C64.7225 10.6027 64.3705 10.7733 64.0505 11.008C63.7518 11.2213 63.5065 11.488 63.3145 11.808C63.1438 12.128 63.0585 12.512 63.0585 12.96V24H58.9625V0.32ZM89.862 7.488H94.022L86.118 26.944C85.67 28.0747 85.0727 28.928 84.326 29.504C83.5793 30.1013 82.5233 30.4 81.158 30.4H78.15V27.168H82.086L83.334 23.84L76.678 7.488H81.03L83.558 14.4L85.318 19.648H85.542L87.302 14.4L89.862 7.488ZM97.3375 20.768H101.434V10.72H97.3375V7.488H105.53V12H105.786C105.935 11.424 106.138 10.8693 106.394 10.336C106.671 9.78133 107.012 9.30133 107.418 8.896C107.844 8.46933 108.356 8.128 108.954 7.872C109.551 7.616 110.266 7.488 111.097 7.488H112.89V11.328H109.498C108.26 11.328 107.29 11.6907 106.586 12.416C105.882 13.1413 105.53 14.0693 105.53 15.2V20.768H111.258V24H97.3375V20.768Z" fill="#0016DD"/>
</svg>
